<?xml version="1.0" encoding="UTF-8"?>
<svg version="1.1" xmlns="http://www.w3.org/2000/svg" width="225" height="225">
<path d="M0 0 C74.25 0 148.5 0 225 0 C225 74.25 225 148.5 225 225 C150.75 225 76.5 225 0 225 C0 150.75 0 76.5 0 0 Z " fill="#FEFEFE" transform="translate(0,0)"/>
<path d="M0 0 C3.96863457 1.32287819 4.35049274 2.87054825 6.37109375 6.484375 C6.68990005 7.04820892 7.00870636 7.61204285 7.33717346 8.19296265 C8.37932443 10.04056331 9.40845742 11.89507168 10.4375 13.75 C11.15081706 15.02116234 11.86501553 16.29183047 12.58007812 17.56201172 C14.02687081 20.13342091 15.46940555 22.70715505 16.90966797 25.28222656 C18.82053388 28.6907863 20.7651228 32.07892284 22.72265625 35.4609375 C23.27961182 36.42418945 23.83656738 37.38744141 24.41040039 38.37988281 C25.45282251 40.18006624 26.49750455 41.97894332 27.54467773 43.77636719 C28.00430908 44.57461914 28.46394043 45.37287109 28.9375 46.1953125 C29.33839844 46.88641113 29.73929687 47.57750977 30.15234375 48.28955078 C31 50 31 50 31 52 C35.27114203 50.89702521 39.5418553 49.79239871 43.8125 48.6875 C45.6059082 48.2244043 45.6059082 48.2244043 47.43554688 47.75195312 C48.61826172 47.44580078 49.80097656 47.13964844 51.01953125 46.82421875 C52.19080566 46.52177246 53.36208008 46.21932617 54.56884766 45.90771484 C58.69812016 44.8153116 62.80076622 43.6383472 66.8972168 42.42895508 C69 42 69 42 71 43 C67.17993208 47.52842489 63.21587182 51.83569848 59 56 C53.57993207 61.36231987 48.5575317 66.88799199 44 73 C44.40089844 73.70157227 44.80179687 74.40314453 45.21484375 75.12597656 C45.78332031 76.12081055 46.35179687 77.11564453 46.9375 78.140625 C47.57824463 79.26154541 48.21898926 80.38246582 48.87915039 81.53735352 C50.30456844 84.03163782 51.72801748 86.52703245 53.15014648 89.02319336 C56.57808791 95.0363033 60.01564521 101.04271262 63.50894165 107.01815796 C65.00603156 109.58019261 66.49582649 112.1464329 67.98510742 114.7130127 C68.7028108 115.94504576 69.42416567 117.17495899 70.14916992 118.40270996 C71.16196578 120.11858353 72.1613982 121.84232391 73.16015625 123.56640625 C73.73386963 124.54552979 74.30758301 125.52465332 74.89868164 126.53344727 C76 129 76 129 75 132 C68.45439919 132.33089314 61.91096265 132.55774294 55.35888672 132.71411133 C53.13313246 132.77930823 50.90793135 132.86789945 48.68408203 132.98071289 C30.73406684 133.86817449 30.73406684 133.86817449 26.24365234 130.79989624 C23.07284763 127.38630414 21.5463858 123.32132443 20 119 C19.25875706 117.61268569 18.4939701 116.23715871 17.6875 114.88671875 C17.130625 113.83097656 16.57375 112.77523437 16 111.6875 C15.4225 110.59824219 14.845 109.50898438 14.25 108.38671875 C13.8375 107.59910156 13.425 106.81148438 13 106 C8.39697087 109.68242331 4.42169694 113.66893933 0.5 118.0625 C-7.58425427 127.02028504 -15.04087722 131.91739677 -27.3125 132.5625 C-36.16392167 132.33474412 -43.50222272 128.60462484 -50 122.6875 C-56.33127708 115.73853736 -58.38715261 107.10434575 -58.27734375 97.94140625 C-57.44691986 89.1342346 -52.73404379 81.16998751 -46.1640625 75.3828125 C-38.06459708 69.73950266 -27.87662743 67.98494863 -18.4284668 65.68261719 C-15.86350657 64.96163309 -13.45541833 64.03000051 -11 63 C-11.37398926 62.39526855 -11.74797852 61.79053711 -12.13330078 61.16748047 C-13.81865297 58.41580979 -15.47185348 55.64612808 -17.125 52.875 C-17.71410156 51.92367187 -18.30320313 50.97234375 -18.91015625 49.9921875 C-19.73193359 48.6 -19.73193359 48.6 -20.5703125 47.1796875 C-21.08352051 46.33132324 -21.59672852 45.48295898 -22.12548828 44.60888672 C-23.3199152 41.04561312 -22.49912913 39.39173482 -21 36 C-20.11622859 34.24366293 -19.1834004 32.51128502 -18.20703125 30.8046875 C-17.66208008 29.84643066 -17.11712891 28.88817383 -16.55566406 27.90087891 C-15.98041992 26.90233887 -15.40517578 25.90379883 -14.8125 24.875 C-13.93609863 23.34045166 -13.93609863 23.34045166 -13.04199219 21.77490234 C-11.36717347 18.84652975 -9.68492694 15.92256523 -8 13 C-7.57831543 12.26587891 -7.15663086 11.53175781 -6.72216797 10.77539062 C-1.2458246 1.2458246 -1.2458246 1.2458246 0 0 Z " fill="#FE922B" transform="translate(98,37)"/>
<path d="M0 0 C0.97916667 1.71354167 1.95833333 3.42708333 2.9375 5.140625 C3.57824463 6.26154541 4.21898926 7.38246582 4.87915039 8.53735352 C6.30456844 11.03163782 7.72801748 13.52703245 9.15014648 16.02319336 C12.57808791 22.0363033 16.01564521 28.04271262 19.50894165 34.01815796 C21.00603156 36.58019261 22.49582649 39.1464329 23.98510742 41.7130127 C24.7028108 42.94504576 25.42416567 44.17495899 26.14916992 45.40270996 C27.16196578 47.11858353 28.1613982 48.84232391 29.16015625 50.56640625 C30.02072632 52.03509155 30.02072632 52.03509155 30.89868164 53.53344727 C32 56 32 56 31 59 C24.45439919 59.33089314 17.91096265 59.55774294 11.35888672 59.71411133 C9.13313246 59.77930823 6.90793135 59.86789945 4.68408203 59.98071289 C-13.27738012 60.86874044 -13.27738012 60.86874044 -17.7543335 57.79586792 C-20.9219066 54.3690156 -22.41969789 50.36061802 -24 46 C-24.75885519 44.65517278 -25.54584845 43.32500034 -26.3828125 42.02734375 C-26.95773438 41.00769531 -27.53265625 39.98804688 -28.125 38.9375 C-28.72570312 37.89464844 -29.32640625 36.85179687 -29.9453125 35.77734375 C-31 33 -31 33 -30.37890625 30.83203125 C-28.96595382 28.95476584 -27.52218269 27.36187476 -25.8125 25.75 C-23.38480664 23.39181115 -21.07980782 21.00519389 -18.875 18.4375 C-15.37862233 14.39706356 -11.79809825 10.4382504 -8.1875 6.5 C-7.61177246 5.86376709 -7.03604492 5.22753418 -6.44287109 4.57202148 C-2.23050283 0 -2.23050283 0 0 0 Z " fill="#AA5EAD" transform="translate(142,110)"/>
<path d="M0 0 C3.96863457 1.32287819 4.35049274 2.87054825 6.37109375 6.484375 C6.68990005 7.0481636 7.00870636 7.61195221 7.33717346 8.19282532 C8.37939252 10.04043632 9.40855032 11.8949716 10.4375 13.75 C11.15084208 15.02188045 11.86504044 16.29328101 12.58007812 17.56420898 C13.66614151 19.49545306 14.75124876 21.42718783 15.83261108 23.36106873 C18.09389473 27.40377077 20.39143274 31.4228043 22.72265625 35.42578125 C23.27961182 36.38452148 23.83656738 37.34326172 24.41040039 38.33105469 C25.45106442 40.11925145 26.49567648 41.90515784 27.54467773 43.68847656 C28.23412476 44.88102051 28.23412476 44.88102051 28.9375 46.09765625 C29.33839844 46.78351807 29.73929688 47.46937988 30.15234375 48.17602539 C31 50 31 50 31 53 C25.985705 54.43418144 20.96862404 55.85799984 15.94873047 57.27246094 C14.24285516 57.75467574 12.53776298 58.23967016 10.83349609 58.72753906 C8.37800472 59.42992714 5.91983343 60.12213852 3.4609375 60.8125 C2.70444916 61.03123779 1.94796082 61.24997559 1.16854858 61.4753418 C-3.00255829 62.63471157 -6.62436891 63.24208194 -11 63 C-13.07515145 59.64453107 -15.10375255 56.26316645 -17.125 52.875 C-17.71410156 51.92367187 -18.30320312 50.97234375 -18.91015625 49.9921875 C-19.73193359 48.6 -19.73193359 48.6 -20.5703125 47.1796875 C-21.08352051 46.33132324 -21.59672852 45.48295898 -22.12548828 44.60888672 C-23.3199152 41.04561312 -22.49912913 39.39173482 -21 36 C-20.11622859 34.24366293 -19.1834004 32.51128502 -18.20703125 30.8046875 C-17.66208008 29.84643066 -17.11712891 28.88817383 -16.55566406 27.90087891 C-15.98041992 26.90233887 -15.40517578 25.90379883 -14.8125 24.875 C-14.22823242 23.85196777 -13.64396484 22.82893555 -13.04199219 21.77490234 C-11.36717347 18.84652975 -9.68492694 15.92256523 -8 13 C-7.57831543 12.26587891 -7.15663086 11.53175781 -6.72216797 10.77539062 C-1.2458246 1.2458246 -1.2458246 1.2458246 0 0 Z " fill="#DA7C63" transform="translate(98,37)"/>
<path d="M0 0 C1.32134971 2.22432218 2.63211206 4.45383619 3.9375 6.6875 C4.49727539 7.62625977 4.49727539 7.62625977 5.06835938 8.58398438 C7.07941211 12.04444449 8.51275665 14.95510676 9 19 C8.34 19 7.68 19 7 19 C7 20.32 7 21.64 7 23 C6.34 23 5.68 23 5 23 C4.22227595 25.33317216 3.57584432 27.61435923 3 30 C2.34 30 1.68 30 1 30 C1 30.66 1 31.32 1 32 C0.01 32.495 0.01 32.495 -1 33 C-1.65213292 35.02463255 -1.65213292 35.02463255 -2 37 C-2.66 37 -3.32 37 -4 37 C-4 37.66 -4 38.32 -4 39 C-6 41 -6 41 -9 42 C-9 43.32 -9 44.64 -9 46 C-9.66 46 -10.32 46 -11 46 C-12.01011756 48.80371932 -12.01011756 48.80371932 -12.375 51 C-13.11138184 53.35642189 -14.15846229 54.39866286 -16 56 C-21.18998222 54.27000593 -22.79910595 48.80946565 -25.3125 44.1875 C-25.88806641 43.17623047 -26.46363281 42.16496094 -27.05664062 41.12304688 C-27.85811523 39.6602832 -27.85811523 39.6602832 -28.67578125 38.16796875 C-29.16989502 37.27360107 -29.66400879 36.3792334 -30.1730957 35.45776367 C-31 33 -31 33 -30.23779297 30.77954102 C-28.90721949 28.866612 -27.50795202 27.3484582 -25.8125 25.75 C-23.38480664 23.39181115 -21.07980782 21.00519389 -18.875 18.4375 C-15.37862233 14.39706356 -11.79809825 10.4382504 -8.1875 6.5 C-7.61177246 5.86376709 -7.03604492 5.22753418 -6.44287109 4.57202148 C-2.23050283 0 -2.23050283 0 0 0 Z " fill="#B3639A" transform="translate(142,110)"/>
<path d="M0 0 C4.63651556 1.54550519 5.88154753 5.28038726 8.25 9.375 C8.95769531 10.54675781 8.95769531 10.54675781 9.6796875 11.7421875 C10.12054688 12.495 10.56140625 13.2478125 11.015625 14.0234375 C11.42071289 14.71356934 11.82580078 15.40370117 12.24316406 16.11474609 C13 18 13 18 12 21 C11.34 21 10.68 21 10 21 C10 21.66 10 22.32 10 23 C9.34 23 8.68 23 8 23 C8 24.65 8 26.3 8 28 C7.34 28 6.68 28 6 28 C5.3503125 29.670625 5.3503125 29.670625 4.6875 31.375 C3 35 3 35 0 37 C-0.144375 37.639375 -0.28875 38.27875 -0.4375 38.9375 C-1.1957308 41.71767959 -2.74129529 42.30597147 -5 44 C-5.79623822 46.09415804 -5.79623822 46.09415804 -6 48 C-6.66 48 -7.32 48 -8 48 C-8 48.66 -8 49.32 -8 50 C-8.66 50 -9.32 50 -10 50 C-9.95875 50.78375 -9.9175 51.5675 -9.875 52.375 C-10 55 -10 55 -12 57 C-12.99 57.495 -12.99 57.495 -14 58 C-15.56761479 55.47139529 -17.10309278 52.93090889 -18.625 50.375 C-19.07101563 49.66214844 -19.51703125 48.94929688 -19.9765625 48.21484375 C-20.5953125 47.16103516 -20.5953125 47.16103516 -21.2265625 46.0859375 C-21.61408691 45.4470459 -22.00161133 44.8081543 -22.40087891 44.14990234 C-23.50667399 40.18183735 -21.46407697 36.92226969 -19.69067383 33.39794922 C-19.20107178 32.54217285 -18.71146973 31.68639648 -18.20703125 30.8046875 C-17.66208008 29.84643066 -17.11712891 28.88817383 -16.55566406 27.90087891 C-15.98041992 26.90233887 -15.40517578 25.90379883 -14.8125 24.875 C-14.22823242 23.85196777 -13.64396484 22.82893555 -13.04199219 21.77490234 C-11.36717347 18.84652975 -9.68492694 15.92256523 -8 13 C-7.57831543 12.26587891 -7.15663086 11.53175781 -6.72216797 10.77539062 C-1.2458246 1.2458246 -1.2458246 1.2458246 0 0 Z " fill="#E68450" transform="translate(98,37)"/>
<path d="M0 0 C4.1272426 3.7687516 6.49897681 8.69856467 9.25 13.5 C9.8171875 14.46292969 10.384375 15.42585937 10.96875 16.41796875 C11.49984375 17.34222656 12.0309375 18.26648438 12.578125 19.21875 C13.06700195 20.06373047 13.55587891 20.90871094 14.05957031 21.77929688 C15 24 15 24 14 27 C10.52085157 27.0294191 7.04173583 27.04693792 3.5625 27.0625 C2.10166992 27.07506836 2.10166992 27.07506836 0.61132812 27.08789062 C-5.34778969 27.10782078 -11.09067683 26.77609518 -17 26 C-16.67 24.35 -16.34 22.7 -16 21 C-15.34 21 -14.68 21 -14 21 C-14 20.34 -14 19.68 -14 19 C-13.34 19 -12.68 19 -12 19 C-12 18.34 -12 17.68 -12 17 C-11.34 17 -10.68 17 -10 17 C-9.896875 16.2575 -9.79375 15.515 -9.6875 14.75 C-8.94909194 11.79636774 -7.8776808 10.347101 -6 8 C-5.67 7.01 -5.34 6.02 -5 5 C-4.34 5 -3.68 5 -3 5 C-2.87625 4.360625 -2.7525 3.72125 -2.625 3.0625 C-2.41875 2.381875 -2.2125 1.70125 -2 1 C-1.34 0.67 -0.68 0.34 0 0 Z " fill="#9F56BF" transform="translate(159,142)"/>
<path d="M0 0 C0 3.51479702 -0.65021767 4.18178057 -2.6875 6.9375 C-8.32628682 15.12969972 -11.40560954 24.46614238 -14 34 C-17.23142331 30.93620095 -19.08896849 28.03439985 -21 24 C-19.93015808 20.89265014 -18.17463734 18.97700362 -15.8125 16.75 C-12.56332956 13.60215504 -9.596569 10.29235094 -6.64453125 6.8671875 C-4.52869105 4.46487962 -2.2975339 2.22791166 0 0 Z " fill="#0A0218" transform="translate(132,119)"/>
<path d="M0 0 C2.62002725 2.37050084 4.35819909 4.87276017 6 8 C6 8.99 6 9.98 6 11 C3.565036 11.69784331 1.12772895 12.38353822 -1.3125 13.0625 C-2.00279297 13.26166016 -2.69308594 13.46082031 -3.40429688 13.66601562 C-8.66015625 15.11328125 -8.66015625 15.11328125 -12 14 C-10.68 13.67 -9.36 13.34 -8 13 C-8 11.68 -8 10.36 -8 9 C-6.625 7.25 -6.625 7.25 -5 6 C-4.34 6 -3.68 6 -3 6 C-3 4.68 -3 3.36 -3 2 C-2.01 1.34 -1.02 0.68 0 0 Z " fill="#D07574" transform="translate(123,79)"/>
<path d="M0 0 C0 3.52695259 -0.81074962 4.75182749 -2.6875 7.6875 C-3.18636719 8.49574219 -3.68523437 9.30398437 -4.19921875 10.13671875 C-6 12 -6 12 -8.70703125 12.26953125 C-9.46371094 12.18058594 -10.22039062 12.09164062 -11 12 C-7.49102731 7.81576108 -3.91939465 3.80411834 0 0 Z " fill="#1E111E" transform="translate(132,119)"/>
</svg>
